<svg width="165" height="187" xmlns="http://www.w3.org/2000/svg">
 <!-- Created with Method Draw - http://github.com/duopixel/Method-Draw/ -->

 <g>
  <title>background</title>
  <rect x="-1" y="-1" width="167" height="189" id="canvas_background" fill="none"/>
  <g id="canvasGrid" display="none">
   <rect id="svg_1" width="100%" height="100%" x="0" y="0" stroke-width="0" fill="url(#gridpattern)"/>
  </g>
 </g>
 <g>
  <title>Layer 1</title>
  <g id="svg_10">
   <path stroke="#000" fill="#58ddc7" stroke-width="0" stroke-opacity="null" d="m25.225823,15.810862l5.946747,5.747901l11.34119,-20.123613c-0.003671,0.103175 3.105823,7.008934 3.105823,7.008934c0,0 6.321282,-4.775856 6.324954,-4.879031c-0.003672,0.103175 9.074601,12.137793 9.078272,12.034617c-0.003671,0.103175 8.596242,-5.846593 8.599914,-5.949767c-0.003672,0.103175 5.340375,7.073122 5.344047,6.96994c-0.003672,0.103182 11.837909,-2.655103 11.841581,-2.75827c-0.003672,0.103167 1.988542,6.976844 1.988542,6.976844c0,0 18.63339,-5.041911 18.637062,-5.145087c-0.003672,0.103175 3.620396,8.263072 3.642428,7.644029c0.022031,-0.61905 5.204001,-4.807955 5.207673,-4.911129c-0.003671,0.103175 10.037661,16.503195 10.041333,16.40002c-0.003672,0.103175 6.898285,-5.275679 6.898285,-5.275679c0,0 1.882058,9.968888 1.885729,9.865721c-0.003671,0.103167 7.949472,-3.386462 7.953144,-3.489636l6.830529,20.434248c-66.62754,58.473535 -77.565293,36.974452 -134.071812,9.365404c-3.419483,-8.474964 -2.81417,-26.994718 2.815219,-37.60787l6.58934,-12.307576z" id="svg_8"/>
   <path stroke="#000" fill="#bcf2e8" stroke-width="0" stroke-opacity="null" d="m12.609584,30.679385c11.062538,9.394861 13.862433,20.347577 24.924971,29.742438c13.472915,-7.803558 26.27366,-22.05742 31.337547,-22.732208c6.108554,2.063668 37.706908,31.349417 45.382456,37.520763c9.133724,-5.086399 31.446846,-24.719228 40.327565,-24.813785c5.350092,5.353491 8.377839,22.555353 9.421639,32.505863c-0.153724,7.544702 -0.307449,16.089403 -0.461173,23.634105l-162.182135,-0.439528c-0.140803,-10.628671 -1.281607,-20.257342 -0.42241,-31.886013c1.40914,-12.42031 5.638619,-41.249999 11.67154,-43.531635z" id="svg_2"/>
   <path stroke="#000" id="svg_7" d="m0.882488,93.276168l0,0l162.999992,-1l0,47.26452c0,0 0,0 0,0l0,27.758705l0,0c0,10.22048 -8.362009,18.505807 -18.677085,18.505807l-76.406234,0l-40.750002,0l-8.489586,0c-10.315066,0 -18.67708,-8.285327 -18.67708,-18.505807l0,0l0,-27.758705l0,0l-0.000005,-46.26452z" fill-opacity="null" stroke-opacity="null" stroke-width="0" fill="#bcf2e8"/>
  </g>
 </g>
</svg>