<svg width="202" height="163" xmlns="http://www.w3.org/2000/svg">
 <!-- Created with Method Draw - http://github.com/duopixel/Method-Draw/ -->

 <g>
  <title>background</title>
  <rect x="-1" y="-1" width="204" height="165" id="canvas_background" fill="none"/>
  <g id="canvasGrid" display="none">
   <rect id="svg_1" width="100%" height="100%" x="0" y="0" stroke-width="0" fill="url(#gridpattern)"/>
  </g>
 </g>
 <g>
  <title>Layer 1</title>
  <path fill="#efefef" stroke="#000" stroke-width="0" stroke-opacity="null" opacity="0.5" d="m10,151.71527l-10,23.83333" id="svg_3"/>
  <g id="svg_10">
   <path stroke="#000" fill="#58ddc7" stroke-width="0" stroke-opacity="null" d="m44.225823,20.810862l5.946747,5.747901l11.34119,-20.123613c-0.003671,0.103175 3.105823,7.008934 3.105823,7.008934c0,0 6.321282,-4.775856 6.324954,-4.879031c-0.003672,0.103175 9.074601,12.137793 9.078272,12.034617c-0.003671,0.103175 8.596242,-5.846593 8.599914,-5.949767c-0.003672,0.103175 5.340375,7.073122 5.344047,6.96994c-0.003672,0.103182 11.837909,-2.655103 11.841581,-2.75827c-0.003672,0.103167 1.988542,6.976844 1.988542,6.976844c0,0 18.63339,-5.041911 18.637062,-5.145087c-0.003672,0.103175 3.620396,8.263072 3.642428,7.644029c0.022031,-0.61905 5.204001,-4.807955 5.207673,-4.911129c-0.003671,0.103175 10.037661,16.503195 10.041333,16.40002c-0.003672,0.103175 6.898285,-5.275679 6.898285,-5.275679c0,0 1.882058,9.968888 1.885729,9.865721c-0.003671,0.103167 7.949472,-3.386462 7.953144,-3.489636l6.830529,20.434248c-66.62754,58.473535 -77.565293,36.974452 -134.071812,9.365404c-3.419483,-8.474964 -2.81417,-26.994718 2.815219,-37.60787l6.58934,-12.307576z" id="svg_8"/>
   <path stroke="#000" fill="#bcf2e8" stroke-width="0" stroke-opacity="null" d="m30.681161,35.679385c11.130379,9.394861 13.947444,20.347577 25.077823,29.742438c13.555537,-7.803558 26.434783,-22.05742 31.529724,-22.732208c6.146015,2.063668 37.938145,31.349417 45.660763,37.520763c9.189737,-5.086399 31.639694,-24.719228 40.574874,-24.813785c5.382901,5.353491 27.429216,61.555353 26.479417,68.505863l-68.464001,11.634105c-7.341607,3.869439 -14.683215,7.738889 -22.024822,11.608328c-34.307543,-10.213943 -43.84435,-15.833912 -78.151893,-26.047856l-29.425001,-0.886013c4.417782,-22.42031 22.673198,-82.249999 28.743116,-84.531635z" id="svg_2"/>
   <path stroke="#000" fill="#606060" stroke-width="0" stroke-opacity="null" d="m38.691185,134.355495c13.843614,1.516831 37.030046,11.300412 77.703361,19.255244c9.7805,-0.300027 14.661238,-7.276743 27.146171,-8.240752c12.25798,-2.046458 29.7721,-3.019485 36.773947,-6.139382c6.62215,-1.800943 1.847529,-5.794252 20.630139,-17.409825c0.882074,-6.914685 -56.460078,4.056056 -68.768969,6.90298c-7.262739,2.571084 -29.525478,3.142168 -37.788217,3.713252c-13.161886,-3.424266 -32.575275,-12.82655 -53.737169,-14.845504c-11.870969,0.146648 -26.416685,-0.508477 -38.287662,-0.361837c-3.114324,2.516767 2.667772,15.091527 6.889056,18.632727c4.813114,2.497699 19.626229,-1.004602 29.439343,-1.506903z" id="svg_4"/>
  </g>
 </g>
</svg>